<svg width="335" height="233" viewBox="0 0 335 233" fill="none" xmlns="http://www.w3.org/2000/svg">
<mask id="mask0_6_351" style="mask-type:luminance" maskUnits="userSpaceOnUse" x="0" y="0" width="335" height="168">
<path d="M0.046875 0.677094H334.448V167.156H0.046875V0.677094Z" fill="white"/>
</mask>
<g mask="url(#mask0_6_351)">
<path fill-rule="evenodd" clip-rule="evenodd" d="M264.172 107.188C268.5 107.188 269.906 113.026 266.318 115.104C267.833 117.948 269.224 120.87 270.49 123.854L279.167 121L271 125.089C272.224 128.063 273.312 131.104 274.276 134.208C279.568 132.844 281.724 140.984 276.479 142.411C277.651 147.531 278.458 152.786 278.891 158.151L334.443 167.156H192.323C192.323 153.375 181.099 142.193 167.25 142.193C153.411 142.193 142.182 153.375 142.182 167.156H0.0625L55.6146 158.151C56.0417 152.786 56.8594 147.531 58.026 142.411C52.7813 140.984 54.9375 132.844 60.2292 134.208C61.1927 131.104 62.2813 128.063 63.5 125.089L55.3333 121L64.0156 123.854C65.276 120.87 66.6719 117.948 68.1823 115.104C63.4583 112.354 67.7969 105.073 72.4531 107.755C76.1354 101.943 80.3385 96.4948 85.0052 91.4688L68.9479 69.2656L91.25 85.2604C96.2917 80.6146 101.76 76.4271 107.599 72.7604C104.917 68.1146 112.219 63.8021 114.979 68.5052C117.833 67 120.771 65.6094 123.766 64.3594L120.896 55.7136L125 63.8438C127.99 62.6302 131.047 61.5469 134.156 60.5833C132.792 55.3125 140.969 53.1719 142.401 58.3906C147.542 57.2292 152.818 56.4219 158.208 55.9896L167.25 0.677094L176.297 55.9896C181.682 56.4219 186.958 57.2292 192.104 58.3906C193.536 53.1719 201.719 55.3177 200.349 60.5833C203.458 61.5469 206.516 62.6302 209.505 63.8438L213.609 55.7136L210.74 64.3542C213.74 65.6094 216.667 67.0052 219.521 68.5C222.286 63.8021 229.599 68.1146 226.906 72.7604C232.745 76.4271 238.214 80.6146 243.26 85.2552L265.557 69.2656L249.505 91.4792C254.167 96.4948 258.37 101.943 262.052 107.755C262.672 107.396 263.396 107.188 264.172 107.188ZM321.031 166.906L197.484 146.88C200.974 152.026 203.172 158.115 203.62 164.677L321.031 166.906ZM265.562 115.453C261.229 116.958 258.01 111.161 261.375 108.234C257.745 102.5 253.599 97.1198 249.01 92.1563L223.109 127.974C224.182 129.484 225.188 131.036 226.135 132.63L250.021 118.896L250.609 119.911L226.724 133.641C227.464 134.932 228.156 136.25 228.807 137.589L269.698 124.115C268.443 121.161 267.062 118.266 265.562 115.453ZM68.9375 115.453C73.276 116.953 76.5052 111.161 73.125 108.234C76.7552 102.495 80.901 97.1198 85.4948 92.1563L111.391 127.974C110.323 129.484 109.312 131.036 108.37 132.63L84.4844 118.896L83.8906 119.911L107.776 133.641C107.047 134.932 106.349 136.25 105.698 137.589L64.8021 124.115C66.0573 121.161 67.4375 118.266 68.9375 115.453ZM132.573 108.521L118.786 84.7396L119.807 84.1511L133.594 107.938C134.891 107.208 136.208 106.516 137.557 105.87L124.031 65.1458C121.057 66.3958 118.156 67.7656 115.323 69.2552C116.818 73.5833 111.021 76.7969 108.078 73.4323C102.318 77.0469 96.9115 81.1719 91.9375 85.75L127.901 111.536C129.411 110.469 130.974 109.464 132.573 108.521ZM148.995 101.578L141.859 75.0573L142.995 74.7552L150.13 101.276L150.833 101.099L158.073 56.8333C152.781 57.2656 147.594 58.0625 142.536 59.2083C142.865 63.8333 136.401 65.3698 134.443 61.3594C131.365 62.3125 128.339 63.3854 125.375 64.5886L144.724 102.906C146.125 102.422 147.552 101.979 148.995 101.578ZM101.089 150.115L74.4479 143.005L74.7656 141.875L101.396 148.979C101.792 147.542 102.24 146.125 102.729 144.724L64.2448 125.464C63.0365 128.406 61.9583 131.422 61.0104 134.495C65.0312 136.438 63.4896 142.87 58.8438 142.547C57.6979 147.589 56.8906 152.75 56.4583 158.016L100.911 150.807L101.089 150.115ZM183.672 101.099L184.37 101.271L191.505 74.7552L192.646 75.0573L185.51 101.578C186.953 101.974 188.375 102.417 189.781 102.906L209.13 64.5886C206.167 63.3854 203.141 62.3125 200.057 61.3594C198.104 65.3698 191.641 63.8333 191.969 59.2083C186.911 58.0625 181.724 57.2656 176.432 56.8333L183.672 101.099ZM196.948 105.87C198.292 106.516 199.615 107.208 200.911 107.938L214.698 84.1511L215.714 84.7396L201.932 108.521C203.531 109.464 205.089 110.474 206.604 111.536L242.573 85.75C237.594 81.1719 232.182 77.0469 226.427 73.4323C223.484 76.7813 217.682 73.5833 219.177 69.2552C216.349 67.7656 213.448 66.3958 210.479 65.1458L196.948 105.87ZM187.906 126.995C190.089 140.344 188.312 136.797 193.026 141.495L258.203 76.599L187.906 126.995ZM204.568 112.995C198.411 108.781 191.505 105.583 184.089 103.635L187.599 125.161L204.568 112.995ZM167.25 101.474V12.4688L146.885 137.052C152.698 133.141 159.708 130.859 167.25 130.859V101.474ZM209.432 146.896L231.042 150.396C229.089 143.005 225.875 136.125 221.646 130.005L209.432 146.896ZM233.589 150.807L278.047 158.021C277.615 152.75 276.812 147.589 275.661 142.547C271.016 142.875 269.474 136.438 273.495 134.495C272.547 131.422 271.464 128.406 270.26 125.464L231.776 144.724C232.266 146.125 232.714 147.542 233.109 148.979L259.745 141.875L260.052 143.005L233.417 150.115L233.589 150.807ZM86.1667 90.2344L126.917 146.599C140.297 144.422 136.771 146.188 141.479 141.49L76.3021 76.599L86.1667 90.2344ZM103.458 150.396L125.073 146.896L112.859 130.005C108.625 136.125 105.417 143.005 103.458 150.396ZM146.901 125.161L150.422 103.63C142.995 105.583 136.089 108.781 129.938 112.995L146.901 125.161Z" fill="white"/>
</g>
<path d="M19.2897 206.341C23.8887 206.341 26.7533 205.44 28.7481 204.534L29.3522 199.144L28.8627 199.071C27.5033 202.987 24.6022 205.55 20.3835 205.55C13.0345 205.55 8.73765 198.805 8.73765 191.534C8.73765 184.034 12.9929 180.039 19.0241 180.039C22.9095 180.039 26.7897 182.373 28.3366 186.258L28.7845 186.144L28.6335 181.17C26.6752 179.847 22.7949 179.321 20.0033 179.321C10.7741 179.321 4.74286 185.612 4.74286 193.227C4.74286 201.67 10.2793 206.341 19.2897 206.341Z" fill="white"/>
<path d="M34.3172 205.966H38.687V205.44C37.4057 205.138 37.1818 204.045 38.1974 201.518L40.3849 196.128H50.4474L52.7078 201.555C53.7651 204.045 54.2912 205.024 53.0464 205.44V205.966H59.9057V205.44C59.0412 205.024 58.062 204.045 57.0047 201.555L47.6609 179.284L43.963 180.94L44.4578 181.998C44.7964 182.675 44.8328 183.279 44.5307 184.034L37.4839 201.518C36.4682 204.045 35.4474 205.024 34.3172 205.44V205.966ZM40.6089 195.529L45.3224 183.883L50.1818 195.529H40.6089Z" fill="white"/>
<path d="M84.3957 206.232C85.0363 206.232 86.2446 206.19 87.1092 205.966V205.44C86.9217 205.477 86.7342 205.477 86.5467 205.477C85.1509 205.477 84.7342 204.571 82.7394 199.56C80.7394 194.545 79.9113 192.774 75.6561 192.284C80.6665 191.685 83.0415 189.081 83.0415 185.612C83.0415 182.56 81.3436 179.586 73.13 179.586H65.2134V180.112C66.4582 180.529 66.7238 181.659 66.7238 184.373V201.18C66.7238 203.894 66.4582 205.024 65.2134 205.44V205.966H72.2238V205.44C70.979 205.024 70.7186 203.894 70.7186 201.18V192.435H72.9425C76.255 192.435 76.4425 194.284 78.7082 199.784C80.5155 204.196 81.2707 206.232 84.3957 206.232ZM70.7186 191.831V180.3C71.2811 180.227 71.8488 180.185 72.3748 180.185C77.0832 180.185 79.0467 183.466 79.0467 186.519C79.0467 189.42 77.4269 191.831 73.13 191.831H70.7186Z" fill="white"/>
<path d="M92.6052 205.966H111.678L111.939 200.466L111.449 200.388C110.017 204.232 107.418 205.362 103.61 205.362H99.9906C98.7875 205.362 98.1104 204.685 98.1104 203.477V192.097H101.725C106.324 192.097 107.642 193.003 108.246 194.961H108.772V188.628H108.246C107.642 190.591 106.324 191.492 101.725 191.492H98.1104V180.185H102.517C106.741 180.185 109.116 181.321 110.621 185.013L111.11 184.899L110.694 179.586H92.6052V180.112C93.85 180.529 94.1156 181.659 94.1156 184.373V201.18C94.1156 203.894 93.85 205.024 92.6052 205.44V205.966Z" fill="white"/>
<path d="M145.587 206.341C150.186 206.341 153.051 205.44 155.046 204.534L155.65 199.144L155.16 199.071C153.801 202.987 150.9 205.55 146.681 205.55C139.332 205.55 135.035 198.805 135.035 191.534C135.035 184.034 139.29 180.039 145.322 180.039C149.207 180.039 153.087 182.373 154.634 186.258L155.082 186.144L154.931 181.17C152.973 179.847 149.092 179.321 146.301 179.321C137.072 179.321 131.04 185.612 131.04 193.227C131.04 201.67 136.577 206.341 145.587 206.341Z" fill="white"/>
<path d="M176.932 206.341C183.266 206.341 190.391 202.086 190.391 192.888C190.391 183.654 183.302 179.284 176.932 179.284C168.943 179.284 163.443 185.201 163.443 192.664C163.443 202.123 170.526 206.341 176.932 206.341ZM167.359 190.362C166.948 184.258 169.849 180.263 174.974 180.263C181.495 180.263 186.016 187.836 186.583 195.867C186.922 200.841 184.849 205.175 179.083 205.175C172.677 205.175 167.891 197.899 167.359 190.362Z" fill="white"/>
<path d="M197.992 205.966H203.044V205.44C201.08 204.836 200.179 203.519 200.179 198.92V183.279L209.637 198.805H210.502L219.549 182.94V201.18C219.549 203.894 219.283 205.024 218.044 205.44V205.966H225.049V205.44C223.809 205.024 223.544 203.894 223.544 201.18V186.633C223.544 182.034 224.372 180.716 226.106 180.112V179.586H220.757L211.898 195.039L202.591 179.586H196.934V180.112C198.669 180.716 199.497 182.034 199.497 186.633V201.18C199.497 203.894 199.236 205.024 197.992 205.44V205.966Z" fill="white"/>
<path d="M233.746 205.966H240.757V205.44C239.512 205.024 239.251 203.894 239.251 201.18V195.602H241.095C248.824 195.602 252.215 191.607 252.215 186.899C252.215 183.841 250.257 179.586 241.663 179.586H233.746V180.112C234.991 180.529 235.257 181.659 235.257 184.373V201.18C235.257 203.894 234.991 205.024 233.746 205.44V205.966ZM239.251 194.998V180.263C239.512 180.227 240.043 180.185 240.418 180.185C246.371 180.185 247.954 184.633 247.954 187.878C247.954 192.133 245.845 194.998 240.908 194.998H239.251Z" fill="white"/>
<path d="M256.353 205.966H260.722V205.44C259.441 205.138 259.217 204.045 260.233 201.518L262.42 196.128H272.483L274.743 201.555C275.801 204.045 276.327 205.024 275.082 205.44V205.966H281.941V205.44C281.077 205.024 280.097 204.045 279.04 201.555L269.696 179.284L265.998 180.94L266.493 181.998C266.832 182.675 266.868 183.279 266.566 184.034L259.519 201.518C258.504 204.045 257.483 205.024 256.353 205.44V205.966ZM262.644 195.529L267.358 183.883L272.217 195.529H262.644Z" fill="white"/>
<path d="M296.259 206.341C300.593 206.341 305.337 203.477 305.337 198.315C305.337 193.795 300.78 192.097 296.936 190.628C293.921 189.42 290.113 188.065 290.113 184.711C290.113 181.732 292.488 179.961 295.504 179.961C299.16 179.961 302.363 182.071 303.905 185.956L304.322 185.805L304.171 180.904C302.212 179.925 299.723 179.321 296.936 179.321C291.02 179.321 287.249 182.222 287.249 186.899C287.249 191.269 290.488 192.55 294.374 194.17C297.39 195.378 302.249 197.112 302.249 200.805C302.249 203.894 299.837 205.55 297.238 205.55C292.223 205.55 288.869 202.237 287.285 197.94L286.796 198.013L286.947 203.67C288.869 205.102 292.374 206.341 296.259 206.341Z" fill="white"/>
<path d="M321.202 206.341C325.536 206.341 330.28 203.477 330.28 198.315C330.28 193.795 325.723 192.097 321.879 190.628C318.864 189.42 315.056 188.065 315.056 184.711C315.056 181.732 317.431 179.961 320.447 179.961C324.103 179.961 327.306 182.071 328.848 185.956L329.265 185.805L329.114 180.904C327.155 179.925 324.666 179.321 321.879 179.321C315.963 179.321 312.192 182.222 312.192 186.899C312.192 191.269 315.431 192.55 319.317 194.17C322.333 195.378 327.192 197.112 327.192 200.805C327.192 203.894 324.78 205.55 322.181 205.55C317.166 205.55 313.812 202.237 312.228 197.94L311.739 198.013L311.89 203.67C313.812 205.102 317.317 206.341 321.202 206.341Z" fill="white"/>
<path d="M0.046875 229.953H333.953" stroke="white" stroke-width="5.74078"/>
</svg>
