<svg width="335" height="233" viewBox="0 0 335 233" fill="none" xmlns="http://www.w3.org/2000/svg">
<mask id="mask0_10_1063" style="mask-type:luminance" maskUnits="userSpaceOnUse" x="0" y="0" width="335" height="167">
<path d="M0 0H334.401V166.479H0V0Z" fill="white"/>
</mask>
<g mask="url(#mask0_10_1063)">
<path fill-rule="evenodd" clip-rule="evenodd" d="M264.125 106.51C268.453 106.51 269.859 112.349 266.271 114.427C267.786 117.271 269.177 120.193 270.443 123.177L279.12 120.323L270.953 124.411C272.177 127.385 273.266 130.427 274.229 133.531C279.521 132.167 281.677 140.307 276.432 141.734C277.604 146.854 278.411 152.109 278.844 157.474L334.396 166.479H192.276C192.276 152.698 181.052 141.516 167.203 141.516C153.365 141.516 142.135 152.698 142.135 166.479H0.015625L55.5677 157.474C55.9948 152.109 56.8125 146.854 57.9792 141.734C52.7344 140.307 54.8906 132.167 60.1823 133.531C61.1458 130.427 62.2344 127.385 63.4531 124.411L55.2865 120.323L63.9688 123.177C65.2292 120.193 66.625 117.271 68.1354 114.427C63.4115 111.677 67.75 104.396 72.4062 107.078C76.0885 101.266 80.2917 95.8177 84.9583 90.7917L68.901 68.5885L91.2031 84.5833C96.2448 79.9375 101.714 75.75 107.552 72.0833C104.87 67.4375 112.172 63.125 114.932 67.8281C117.786 66.3229 120.724 64.9323 123.719 63.6823L120.849 55.0365L124.953 63.1667C127.943 61.9531 131 60.8698 134.109 59.9062C132.745 54.6354 140.922 52.4948 142.354 57.7135C147.495 56.5521 152.771 55.7448 158.161 55.3125L167.203 0L176.25 55.3125C181.635 55.7448 186.911 56.5521 192.057 57.7135C193.49 52.4948 201.672 54.6406 200.302 59.9062C203.411 60.8698 206.469 61.9531 209.458 63.1667L213.562 55.0365L210.693 63.6771C213.693 64.9323 216.62 66.3281 219.474 67.8229C222.24 63.125 229.552 67.4375 226.859 72.0833C232.698 75.75 238.167 79.9375 243.214 84.5781L265.51 68.5885L249.458 90.8021C254.12 95.8177 258.323 101.266 262.005 107.078C262.625 106.719 263.349 106.51 264.125 106.51ZM320.984 166.229L197.438 146.203C200.927 151.349 203.125 157.438 203.573 164L320.984 166.229ZM265.516 114.776C261.182 116.281 257.964 110.484 261.328 107.557C257.698 101.823 253.552 96.4427 248.964 91.4792L223.062 127.297C224.135 128.807 225.141 130.359 226.089 131.953L249.974 118.219L250.562 119.234L226.677 132.964C227.417 134.255 228.109 135.573 228.76 136.911L269.651 123.438C268.396 120.484 267.016 117.589 265.516 114.776ZM68.8906 114.776C73.2292 116.276 76.4583 110.484 73.0781 107.557C76.7083 101.818 80.8542 96.4427 85.4479 91.4792L111.344 127.297C110.276 128.807 109.266 130.359 108.323 131.953L84.4375 118.219L83.8438 119.234L107.729 132.964C107 134.255 106.302 135.573 105.651 136.911L64.7552 123.438C66.0104 120.484 67.3906 117.589 68.8906 114.776ZM132.526 107.844L118.74 84.0625L119.76 83.474L133.547 107.26C134.844 106.531 136.161 105.839 137.51 105.193L123.984 64.4688C121.01 65.7188 118.109 67.0885 115.276 68.5781C116.771 72.9062 110.974 76.1198 108.031 72.7552C102.271 76.3698 96.8646 80.4948 91.8906 85.0729L127.854 110.859C129.365 109.792 130.927 108.786 132.526 107.844ZM148.948 100.901L141.812 74.3802L142.948 74.0781L150.083 100.599L150.786 100.422L158.026 56.1562C152.734 56.5885 147.547 57.3854 142.49 58.5312C142.818 63.1562 136.354 64.6927 134.396 60.6823C131.318 61.6354 128.292 62.7083 125.328 63.9115L144.677 102.229C146.078 101.745 147.505 101.302 148.948 100.901ZM101.042 149.438L74.401 142.328L74.7188 141.198L101.349 148.302C101.745 146.865 102.193 145.448 102.682 144.047L64.1979 124.786C62.9896 127.729 61.9115 130.745 60.9635 133.818C64.9844 135.76 63.4427 142.193 58.7969 141.87C57.651 146.911 56.8438 152.073 56.4115 157.339L100.865 150.13L101.042 149.438ZM183.625 100.422L184.323 100.594L191.458 74.0781L192.599 74.3802L185.464 100.901C186.906 101.297 188.328 101.74 189.734 102.229L209.083 63.9115C206.12 62.7083 203.094 61.6354 200.01 60.6823C198.057 64.6927 191.594 63.1562 191.922 58.5312C186.865 57.3854 181.677 56.5885 176.385 56.1562L183.625 100.422ZM196.901 105.193C198.245 105.839 199.568 106.531 200.865 107.26L214.651 83.474L215.667 84.0625L201.885 107.844C203.484 108.786 205.042 109.797 206.557 110.859L242.526 85.0729C237.547 80.4948 232.135 76.3698 226.38 72.7552C223.438 76.1042 217.635 72.9062 219.13 68.5781C216.302 67.0885 213.401 65.7188 210.432 64.4688L196.901 105.193ZM187.859 126.318C190.042 139.667 188.266 136.12 192.979 140.818L258.156 75.9219L187.859 126.318ZM204.521 112.318C198.365 108.104 191.458 104.906 184.042 102.958L187.552 124.484L204.521 112.318ZM167.203 100.797V11.7917L146.839 136.375C152.651 132.464 159.661 130.182 167.203 130.182V100.797ZM209.385 146.219L230.995 149.719C229.042 142.328 225.828 135.448 221.599 129.328L209.385 146.219ZM233.542 150.13L278 157.344C277.568 152.073 276.766 146.911 275.615 141.87C270.969 142.198 269.427 135.76 273.448 133.818C272.5 130.745 271.417 127.729 270.214 124.786L231.729 144.047C232.219 145.448 232.667 146.865 233.062 148.302L259.698 141.198L260.005 142.328L233.37 149.438L233.542 150.13ZM86.1198 89.5573L126.87 145.922C140.25 143.745 136.724 145.51 141.432 140.812L76.2552 75.9219L86.1198 89.5573ZM103.411 149.719L125.026 146.219L112.812 129.328C108.578 135.448 105.37 142.328 103.411 149.719ZM146.854 124.484L150.375 102.953C142.948 104.906 136.042 108.104 129.891 112.318L146.854 124.484Z" fill="#143C72"/>
</g>
<path d="M19.2429 205.664C23.8418 205.664 26.7064 204.763 28.7012 203.857L29.3054 198.466L28.8158 198.394C27.4564 202.31 24.5554 204.873 20.3366 204.873C12.9877 204.873 8.69078 198.128 8.69078 190.857C8.69078 183.357 12.946 179.362 18.9772 179.362C22.8627 179.362 26.7429 181.696 28.2897 185.581L28.7377 185.466L28.5866 180.493C26.6283 179.17 22.7481 178.644 19.9564 178.644C10.7272 178.644 4.69598 184.935 4.69598 192.55C4.69598 200.993 10.2324 205.664 19.2429 205.664Z" fill="#143C72"/>
<path d="M34.2703 205.289H38.6401V204.763C37.3589 204.461 37.1349 203.367 38.1505 200.841L40.338 195.451H50.4005L52.6609 200.878C53.7182 203.367 54.2443 204.347 52.9995 204.763V205.289H59.8589V204.763C58.9943 204.347 58.0151 203.367 56.9578 200.878L47.6141 178.607L43.9162 180.263L44.411 181.32C44.7495 181.998 44.7859 182.602 44.4839 183.357L37.437 200.841C36.4214 203.367 35.4005 204.347 34.2703 204.763V205.289ZM40.562 194.852L45.2755 183.206L50.1349 194.852H40.562Z" fill="#143C72"/>
<path d="M84.3488 205.555C84.9894 205.555 86.1978 205.513 87.0623 205.289V204.763C86.8748 204.8 86.6873 204.8 86.4998 204.8C85.104 204.8 84.6873 203.894 82.6925 198.883C80.6925 193.868 79.8644 192.097 75.6092 191.607C80.6196 191.008 82.9946 188.404 82.9946 184.935C82.9946 181.883 81.2967 178.909 73.0832 178.909H65.1665V179.435C66.4113 179.852 66.6769 180.982 66.6769 183.696V200.503C66.6769 203.216 66.4113 204.347 65.1665 204.763V205.289H72.1769V204.763C70.9321 204.347 70.6717 203.216 70.6717 200.503V191.758H72.8957C76.2082 191.758 76.3957 193.607 78.6613 199.107C80.4686 203.519 81.2238 205.555 84.3488 205.555ZM70.6717 191.154V179.623C71.2342 179.55 71.8019 179.508 72.328 179.508C77.0363 179.508 78.9998 182.789 78.9998 185.841C78.9998 188.743 77.38 191.154 73.0832 191.154H70.6717Z" fill="#143C72"/>
<path d="M92.5583 205.289H111.631L111.892 199.789L111.402 199.711C109.97 203.555 107.371 204.685 103.564 204.685H99.9438C98.7406 204.685 98.0636 204.008 98.0636 202.8V191.42H101.678C106.277 191.42 107.595 192.326 108.199 194.284H108.725V187.951H108.199C107.595 189.914 106.277 190.815 101.678 190.815H98.0636V179.508H102.47C106.694 179.508 109.069 180.644 110.574 184.336L111.064 184.222L110.647 178.909H92.5583V179.435C93.8031 179.852 94.0688 180.982 94.0688 183.696V200.503C94.0688 203.216 93.8031 204.347 92.5583 204.763V205.289Z" fill="#143C72"/>
<path d="M145.54 205.664C150.139 205.664 153.004 204.763 154.999 203.857L155.603 198.466L155.113 198.394C153.754 202.31 150.853 204.873 146.634 204.873C139.285 204.873 134.988 198.128 134.988 190.857C134.988 183.357 139.244 179.362 145.275 179.362C149.16 179.362 153.04 181.696 154.587 185.581L155.035 185.466L154.884 180.493C152.926 179.17 149.046 178.644 146.254 178.644C137.025 178.644 130.994 184.935 130.994 192.55C130.994 200.993 136.53 205.664 145.54 205.664Z" fill="#143C72"/>
<path d="M176.886 205.664C183.219 205.664 190.344 201.409 190.344 192.211C190.344 182.977 183.255 178.607 176.886 178.607C168.896 178.607 163.396 184.524 163.396 191.987C163.396 201.445 170.479 205.664 176.886 205.664ZM167.313 189.685C166.901 183.581 169.802 179.586 174.927 179.586C181.448 179.586 185.969 187.159 186.537 195.19C186.875 200.164 184.802 204.498 179.037 204.498C172.63 204.498 167.844 197.222 167.313 189.685Z" fill="#143C72"/>
<path d="M197.945 205.289H202.997V204.763C201.033 204.159 200.132 202.841 200.132 198.243V182.602L209.591 198.128H210.455L219.502 182.263V200.503C219.502 203.216 219.236 204.347 217.997 204.763V205.289H225.002V204.763C223.762 204.347 223.497 203.216 223.497 200.503V185.956C223.497 181.357 224.325 180.039 226.059 179.435V178.909H220.71L211.851 194.362L202.544 178.909H196.887V179.435C198.622 180.039 199.45 181.357 199.45 185.956V200.503C199.45 203.216 199.19 204.347 197.945 204.763V205.289Z" fill="#143C72"/>
<path d="M233.699 205.289H240.71V204.763C239.465 204.347 239.204 203.216 239.204 200.503V194.925H241.048C248.777 194.925 252.168 190.93 252.168 186.222C252.168 183.164 250.21 178.909 241.616 178.909H233.699V179.435C234.944 179.852 235.21 180.982 235.21 183.696V200.503C235.21 203.216 234.944 204.347 233.699 204.763V205.289ZM239.204 194.321V179.586C239.465 179.55 239.996 179.508 240.371 179.508C246.324 179.508 247.908 183.956 247.908 187.201C247.908 191.456 245.798 194.321 240.861 194.321H239.204Z" fill="#143C72"/>
<path d="M256.306 205.289H260.676V204.763C259.394 204.461 259.17 203.367 260.186 200.841L262.373 195.451H272.436L274.696 200.878C275.754 203.367 276.28 204.347 275.035 204.763V205.289H281.894V204.763C281.03 204.347 280.051 203.367 278.993 200.878L269.65 178.607L265.952 180.263L266.446 181.32C266.785 181.998 266.821 182.602 266.519 183.357L259.472 200.841C258.457 203.367 257.436 204.347 256.306 204.763V205.289ZM262.597 194.852L267.311 183.206L272.17 194.852H262.597Z" fill="#143C72"/>
<path d="M296.212 205.664C300.546 205.664 305.291 202.8 305.291 197.638C305.291 193.118 300.733 191.42 296.89 189.951C293.874 188.743 290.067 187.388 290.067 184.034C290.067 181.055 292.442 179.284 295.457 179.284C299.113 179.284 302.317 181.394 303.858 185.279L304.275 185.128L304.124 180.227C302.166 179.248 299.676 178.644 296.89 178.644C290.973 178.644 287.202 181.545 287.202 186.222C287.202 190.591 290.442 191.873 294.327 193.493C297.343 194.701 302.202 196.435 302.202 200.128C302.202 203.216 299.791 204.873 297.192 204.873C292.176 204.873 288.822 201.56 287.238 197.263L286.749 197.336L286.9 202.993C288.822 204.425 292.327 205.664 296.212 205.664Z" fill="#143C72"/>
<path d="M321.155 205.664C325.489 205.664 330.234 202.8 330.234 197.638C330.234 193.118 325.676 191.42 321.833 189.951C318.817 188.743 315.01 187.388 315.01 184.034C315.01 181.055 317.385 179.284 320.4 179.284C324.056 179.284 327.26 181.394 328.801 185.279L329.218 185.128L329.067 180.227C327.109 179.248 324.619 178.644 321.833 178.644C315.916 178.644 312.145 181.545 312.145 186.222C312.145 190.591 315.385 191.873 319.27 193.493C322.286 194.701 327.145 196.435 327.145 200.128C327.145 203.216 324.734 204.873 322.135 204.873C317.119 204.873 313.765 201.56 312.181 197.263L311.692 197.336L311.843 202.993C313.765 204.425 317.27 205.664 321.155 205.664Z" fill="#143C72"/>
<path d="M0 229.276H333.906" stroke="#143C72" stroke-width="5.74078"/>
</svg>
